<?xml version="1.0" encoding="utf-8"?>
<!-- Generator: Adobe Illustrator 12.0.0, SVG Export Plug-In  -->
<!DOCTYPE svg PUBLIC "-//W3C//DTD SVG 1.1//EN" "http://www.w3.org/Graphics/SVG/1.1/DTD/svg11.dtd" [
	<!ENTITY ns_flows "http://ns.adobe.com/Flows/1.0/">
	<!ENTITY ns_svg "http://www.w3.org/2000/svg">
	<!ENTITY ns_xlink "http://www.w3.org/1999/xlink">
]>
<svg  version="1.1" xmlns="&ns_svg;" xmlns:xlink="&ns_xlink;" xmlns:a="http://ns.adobe.com/AdobeSVGViewerExtensions/3.0/"
	 width="146" height="146" viewBox="-0.75 -0.578 146 146" enable-background="new -0.75 -0.578 146 146" xml:space="preserve">
<defs>
</defs>
<g id="XMLID_33_" opacity="0">
	<g>
	</g>
	<g>
		<path fill="none" stroke="#636466" stroke-width="0.5" d="M144.25,141.25c0,1.66-1.34,3-3,3h-138c-1.66,0-3-1.34-3-3v-138
			c0-1.66,1.34-3,3-3h138c1.66,0,3,1.34,3,3V141.25z"/>
	</g>
</g>
<path fill="none" stroke="#636466" stroke-width="0.5" d="M31.021,109.721 M18.668,144.422c2.878-12.778,7.106-24.514,12.549-34.596
	c5.325-9.867,11.524-17.611,18.427-23.02c7.139-5.595,14.72-8.431,22.532-8.431"/>
<path fill="none" stroke="#636466" stroke-width="0.5" d="M113.404,109.721 M72.25,78.376c7.813,0,15.395,2.836,22.532,8.431
	c6.902,5.408,13.102,13.152,18.428,23.02c5.442,10.082,9.671,21.817,12.548,34.596"/>
<ellipse fill="none" stroke="#636466" stroke-width="0.5" cx="72.176" cy="48.853" rx="28.141" ry="27.726"/>
</svg>
