<?xml version="1.0" encoding="utf-8"?>
<!-- Generator: Adobe Illustrator 12.0.0, SVG Export Plug-In  -->
<!DOCTYPE svg PUBLIC "-//W3C//DTD SVG 1.1//EN" "http://www.w3.org/Graphics/SVG/1.1/DTD/svg11.dtd" [
	<!ENTITY ns_flows "http://ns.adobe.com/Flows/1.0/">
	<!ENTITY ns_svg "http://www.w3.org/2000/svg">
	<!ENTITY ns_xlink "http://www.w3.org/1999/xlink">
]>
<svg  version="1.1" xmlns="&ns_svg;" xmlns:xlink="&ns_xlink;" xmlns:a="http://ns.adobe.com/AdobeSVGViewerExtensions/3.0/"
	 width="146" height="146" viewBox="-0.579 -0.579 146 146" enable-background="new -0.579 -0.579 146 146" xml:space="preserve">
<defs>
</defs>
<path fill="none" stroke="#636466" stroke-width="0.5" d="M144.593,141.919c0,1.477-1.197,2.674-2.674,2.674H2.923
	c-1.476,0-2.673-1.197-2.673-2.674V2.923c0-1.476,1.198-2.673,2.673-2.673h138.996c1.477,0,2.674,1.198,2.674,2.673V141.919z"/>
<path fill="none" stroke="#636466" stroke-width="0.5" d="M31.193,109.892 M18.839,144.593c2.878-12.778,7.106-24.514,12.549-34.596
	c5.325-9.867,11.524-17.611,18.427-23.02c7.139-5.595,14.72-8.431,22.532-8.431"/>
<path fill="none" stroke="#636466" stroke-width="0.5" d="M113.576,109.892 M72.421,78.547c7.813,0,15.395,2.836,22.532,8.431
	c6.902,5.408,13.102,13.152,18.428,23.02c5.442,10.082,9.671,21.817,12.548,34.596"/>
<ellipse fill="none" stroke="#636466" stroke-width="0.5" cx="72.347" cy="48.024" rx="28.141" ry="27.726"/>
</svg>
