<?xml version="1.0" encoding="utf-8"?>
<!-- Generator: Adobe Illustrator 12.0.0, SVG Export Plug-In  -->
<!DOCTYPE svg PUBLIC "-//W3C//DTD SVG 1.1//EN" "http://www.w3.org/Graphics/SVG/1.1/DTD/svg11.dtd" [
	<!ENTITY ns_flows "http://ns.adobe.com/Flows/1.0/">
	<!ENTITY ns_svg "http://www.w3.org/2000/svg">
	<!ENTITY ns_xlink "http://www.w3.org/1999/xlink">
]>
<svg  version="1.1" xmlns="&ns_svg;" xmlns:xlink="&ns_xlink;" xmlns:a="http://ns.adobe.com/AdobeSVGViewerExtensions/3.0/"
	 width="146" height="146" viewBox="-0.75 -0.75 146 146" enable-background="new -0.75 -0.75 146 146" xml:space="preserve">
<defs>
</defs>
<path fill="none" stroke="#636466" stroke-width="0.5" d="M144.25,141.583c0,1.473-1.194,2.667-2.667,2.667H2.917
	c-1.473,0-2.667-1.194-2.667-2.667V2.917c0-1.473,1.194-2.667,2.667-2.667h138.667c1.473,0,2.667,1.194,2.667,2.667V141.583z"/>
<circle fill="none" stroke="#636466" stroke-width="0.5" cx="72.25" cy="72.25" r="64.222"/>
<circle fill="none" stroke="#636466" stroke-width="0.5" cx="72.028" cy="72.472" r="21.193"/>
<line fill="none" stroke="#636466" stroke-width="0.5" x1="131.542" y1="30.487" x2="119.917" y2="94.486"/>
<line fill="none" stroke="#636466" stroke-width="0.5" x1="116.151" y1="92.737" x2="127.606" y2="29.771"/>
<line fill="none" stroke="#636466" stroke-width="0.5" x1="109.563" y1="102.556" x2="116.213" y2="92.62"/>
<line fill="none" stroke="#636466" stroke-width="0.5" x1="119.963" y1="94.37" x2="112.806" y2="104.936"/>
<path fill="none" stroke="#636466" stroke-width="0.5" d="M136.622,28.388c-0.26,1.45-1.646,2.415-3.095,2.155l-7.219-1.292
	c-1.449-0.259-2.414-1.645-2.155-3.095l3.702-20.671c0.259-1.449,1.646-2.415,3.095-2.155l7.219,1.292
	c1.449,0.26,2.414,1.646,2.154,3.095L136.622,28.388z"/>
<path fill="none" stroke="#636466" stroke-width="0.5" d="M107.829,114.872c-0.964,1.303-2.801,1.577-4.103,0.613l-1.703-1.261
	c-1.302-0.964-1.576-2.802-0.612-4.103l4.8-6.484c0.964-1.302,2.801-1.576,4.103-0.612l1.703,1.261
	c1.303,0.964,1.576,2.801,0.612,4.104L107.829,114.872z"/>
</svg>
