<?xml version="1.0" encoding="utf-8"?>
<!-- Generator: Adobe Illustrator 12.0.0, SVG Export Plug-In  -->
<!DOCTYPE svg PUBLIC "-//W3C//DTD SVG 1.1//EN" "http://www.w3.org/Graphics/SVG/1.1/DTD/svg11.dtd" [
	<!ENTITY ns_flows "http://ns.adobe.com/Flows/1.0/">
	<!ENTITY ns_svg "http://www.w3.org/2000/svg">
	<!ENTITY ns_xlink "http://www.w3.org/1999/xlink">
]>
<svg  version="1.1" xmlns="&ns_svg;" xmlns:xlink="&ns_xlink;" xmlns:a="http://ns.adobe.com/AdobeSVGViewerExtensions/3.0/"
	 width="652" height="652" viewBox="-0.5 -0.5 652 652" enable-background="new -0.5 -0.5 652 652" xml:space="preserve">
<defs>
</defs>
<path fill="none" stroke="#636466" stroke-width="3" d="M649.5,637.5c0,6.627-5.373,12-12,12h-624c-6.627,0-12-5.373-12-12v-624
	c0-6.627,5.373-12,12-12h624c6.627,0,12,5.373,12,12V637.5z"/>
<path fill="none"  stroke="#636466" stroke-width="3" d="M126.055,482.921 M67.109,648.5
	c13.732-60.969,33.909-116.969,59.877-165.076c25.407-47.082,54.99-84.033,87.925-109.839
	c34.063-26.691,70.236-40.223,107.514-40.223"/>
<path fill="none" stroke="#636466" stroke-width="3" d="M519.149,482.921 M322.779,333.362c37.283,0,73.457,13.531,107.514,40.223
	c32.935,25.806,62.515,62.757,87.929,109.839c25.969,48.107,46.146,104.107,59.873,165.076"/>
<ellipse fill="none" stroke="#636466" stroke-width="3" cx="322.425" cy="187.715" rx="134.275" ry="132.297"/>
</svg>
