<?xml version="1.0" encoding="utf-8"?>
<!-- Generator: Adobe Illustrator 12.0.0, SVG Export Plug-In  -->
<!DOCTYPE svg PUBLIC "-//W3C//DTD SVG 1.1//EN" "http://www.w3.org/Graphics/SVG/1.1/DTD/svg11.dtd" [
	<!ENTITY ns_flows "http://ns.adobe.com/Flows/1.0/">
	<!ENTITY ns_svg "http://www.w3.org/2000/svg">
	<!ENTITY ns_xlink "http://www.w3.org/1999/xlink">
]>
<svg  version="1.1" xmlns="&ns_svg;" xmlns:xlink="&ns_xlink;" xmlns:a="http://ns.adobe.com/AdobeSVGViewerExtensions/3.0/"
	 width="652" height="652" viewBox="-0.167 -0.5 652 652" enable-background="new -0.167 -0.5 652 652" xml:space="preserve">
<defs>
</defs>
<path fill="none" stroke="#636466" stroke-width="3" d="M649.5,637.5c0,6.627-5.373,12-12,12h-624c-6.627,0-12-5.373-12-12v-624
	c0-6.627,5.373-12,12-12h624c6.627,0,12,5.373,12,12V637.5z"/>
<line fill="none" stroke="#636466" stroke-width="3" x1="250.388" y1="190.347" x2="400.874" y2="190.347"/>
<line fill="none" stroke="#636466" stroke-width="3" x1="278.6" y1="213.491" x2="372.657" y2="213.491"/>
<line fill="none" stroke="#636466" stroke-width="3" x1="231.577" y1="232.302" x2="306.82" y2="232.302"/>
<line fill="none" stroke="#636466" stroke-width="3" x1="344.442" y1="232.302" x2="419.685" y2="232.302"/>
<line fill="none" stroke="#636466" stroke-width="3" x1="325.63" y1="225.9" x2="325.63" y2="235.179"/>
<path fill="none" stroke="#636466" stroke-width="3" d="M137.518,351.441c0,6.924-5.617,12.541-12.542,12.541H74.816
	c-6.925,0-12.542-5.617-12.542-12.541v-50.164c0-6.926,5.617-12.543,12.542-12.543h50.159c6.925,0,12.542,5.618,12.542,12.543
	V351.441z"/>
<path fill="none" stroke="#636466" stroke-width="3" d="M438.497,351.441c0,6.924-5.613,12.541-12.539,12.541h-50.164
	c-6.924,0-12.541-5.617-12.541-12.541v-50.164c0-6.926,5.617-12.543,12.541-12.543h50.164c6.926,0,12.539,5.618,12.539,12.543
	V351.441z"/>
<path fill="none" stroke="#636466" stroke-width="3" d="M588.987,351.441c0,6.924-5.617,12.541-12.541,12.541h-50.164
	c-6.926,0-12.537-5.617-12.537-12.541v-50.164c0-6.926,5.611-12.543,12.537-12.543h50.164c6.924,0,12.541,5.618,12.541,12.543
	V351.441z"/>
<path fill="none" stroke="#636466" stroke-width="3" d="M288.009,351.441c0,6.924-5.612,12.541-12.542,12.541h-50.164
	c-6.925,0-12.538-5.617-12.538-12.541v-50.164c0-6.926,5.613-12.543,12.538-12.543h50.164c6.93,0,12.542,5.618,12.542,12.543
	V351.441z"/>
<line fill="none" stroke="#636466" stroke-width="3" x1="81.085" y1="382.793" x2="118.707" y2="382.793"/>
<line fill="none" stroke="#636466" stroke-width="3" x1="231.577" y1="382.793" x2="269.198" y2="382.793"/>
<line fill="none" stroke="#636466" stroke-width="3" x1="372.657" y1="382.793" x2="429.091" y2="382.793"/>
<line fill="none" stroke="#636466" stroke-width="3" x1="523.149" y1="382.793" x2="579.583" y2="382.793"/>
<line fill="none" stroke="#636466" stroke-width="3" x1="0.833" y1="64.655" x2="650.429" y2="64.655"/>
<line fill="none" stroke="#636466" stroke-width="3" x1="180.941" y1="28.566" x2="650.429" y2="28.566"/>
<line fill="none" stroke="#636466" stroke-width="3" x1="166.236" y1="1.5" x2="180.941" y2="28.566"/>
<rect x="562.212" y="7.516" fill="none" stroke="#636466" stroke-width="3" width="24.059" height="14.368"/>
<rect x="586.271" y="7.516" fill="none" stroke="#636466" stroke-width="3" width="24.061" height="14.368"/>
<rect x="610.331" y="7.516" fill="none" stroke="#636466" stroke-width="3" width="24.059" height="14.368"/>
<line fill="none" stroke="#636466" stroke-width="3" x1="9.855" y1="29.066" x2="20.882" y2="1.5"/>
<line fill="none" stroke="#636466" stroke-width="3" x1="9.855" y1="29.066" x2="0.833" y2="29.066"/>
<path fill="none" stroke="#636466" stroke-width="3" d="M71.054,46.435c0,3.038-2.339,5.498-5.229,5.498
	c-2.886,0-5.229-2.46-5.229-5.498s2.458-5.509,5.348-5.509"/>
<line fill="none" stroke="#636466" stroke-width="3" x1="70.045" y1="43.089" x2="70.244" y2="39.91"/>
<line fill="none" stroke="#636466" stroke-width="3" x1="70.076" y1="43.142" x2="67.301" y2="43.234"/>
<line fill="none" stroke="#636466" stroke-width="3" x1="36.921" y1="46.611" x2="45.944" y2="46.611"/>
<line fill="none" stroke="#636466" stroke-width="3" x1="45.565" y1="46.611" x2="42.199" y2="42.49"/>
<line fill="none" stroke="#636466" stroke-width="3" x1="45.565" y1="46.611" x2="41.82" y2="50.732"/>
<line fill="none" stroke="#636466" stroke-width="3" x1="22.886" y1="46.611" x2="13.864" y2="46.611"/>
<line fill="none" stroke="#636466" stroke-width="3" x1="14.243" y1="46.611" x2="17.608" y2="42.49"/>
<line fill="none" stroke="#636466" stroke-width="3" x1="14.243" y1="46.611" x2="17.987" y2="50.732"/>
<path fill="none" stroke="#636466" stroke-width="3" d="M65.909,40.926c0,0,3.648-0.216,4.211,2.009"/>
</svg>
