<?xml version="1.0" encoding="utf-8"?>
<!-- Generator: Adobe Illustrator 12.0.0, SVG Export Plug-In  -->
<!DOCTYPE svg PUBLIC "-//W3C//DTD SVG 1.1//EN" "http://www.w3.org/Graphics/SVG/1.1/DTD/svg11.dtd" [
	<!ENTITY ns_flows "http://ns.adobe.com/Flows/1.0/">
	<!ENTITY ns_svg "http://www.w3.org/2000/svg">
	<!ENTITY ns_xlink "http://www.w3.org/1999/xlink">
]>
<svg  version="1.1" xmlns="&ns_svg;" xmlns:xlink="&ns_xlink;" xmlns:a="http://ns.adobe.com/AdobeSVGViewerExtensions/3.0/"
	 width="650" height="650" viewBox="-0.5 -0.5 650 650" enable-background="new -0.5 -0.5 650 650" xml:space="preserve">
<defs>
</defs>
<path fill="none" stroke="#000000" d="M648.5,636.5c0,6.627-5.373,12-12,12h-624c-6.627,0-12-5.373-12-12v-624
	c0-6.627,5.373-12,12-12h624c6.627,0,12,5.373,12,12V636.5z"/>
<circle fill="none" stroke="#000000" cx="324.499" cy="159.721" r="42.221"/>
<line fill="none" stroke="#000000" x1="249.44" y1="222.8" x2="399.561" y2="222.8"/>
<line fill="none" stroke="#000000" x1="277.587" y1="245.886" x2="371.412" y2="245.886"/>
<line fill="none" stroke="#000000" x1="230.675" y1="264.651" x2="305.735" y2="264.651"/>
<line fill="none" stroke="#000000" x1="343.265" y1="264.651" x2="418.325" y2="264.651"/>
<line fill="none" stroke="#000000" x1="324.5" y1="258.265" x2="324.5" y2="267.518"/>
<path fill="none" stroke="#000000" d="M136.85,383.496c0,6.908-5.601,12.51-12.51,12.51H74.3c-6.909,0-12.51-5.602-12.51-12.51
	v-50.041c0-6.908,5.601-12.51,12.51-12.51h50.041c6.909,0,12.51,5.602,12.51,12.51V383.496z"/>
<path fill="none" stroke="#000000" d="M437.09,383.496c0,6.908-5.602,12.51-12.51,12.51h-50.04c-6.908,0-12.51-5.602-12.51-12.51
	v-50.041c0-6.908,5.602-12.51,12.51-12.51h50.04c6.908,0,12.51,5.602,12.51,12.51V383.496z"/>
<path fill="none" stroke="#000000" d="M587.21,383.496c0,6.908-5.602,12.51-12.51,12.51h-50.04c-6.909,0-12.51-5.602-12.51-12.51
	v-50.041c0-6.908,5.601-12.51,12.51-12.51h50.04c6.908,0,12.51,5.602,12.51,12.51V383.496z"/>
<path fill="none" stroke="#000000" d="M286.97,383.496c0,6.908-5.601,12.51-12.51,12.51h-50.04c-6.909,0-12.51-5.602-12.51-12.51
	v-50.041c0-6.908,5.601-12.51,12.51-12.51h50.04c6.909,0,12.51,5.602,12.51,12.51V383.496z"/>
<line fill="none" stroke="#000000" x1="80.555" y1="414.771" x2="118.085" y2="414.771"/>
<line fill="none" stroke="#000000" x1="230.675" y1="414.771" x2="268.205" y2="414.771"/>
<line fill="none" stroke="#000000" x1="371.412" y1="414.771" x2="427.707" y2="414.771"/>
<line fill="none" stroke="#000000" x1="521.532" y1="414.771" x2="577.827" y2="414.771"/>
<line fill="none" stroke="#000000" x1="0.5" y1="63.5" x2="648.5" y2="63.5"/>
<line fill="none" stroke="#000000" x1="180.167" y1="27.5" x2="648.5" y2="27.5"/>
<line fill="none" stroke="#000000" x1="165.5" y1="0.5" x2="180.167" y2="27.5"/>
<rect x="560.5" y="6.5" fill="none" stroke="#000000" width="24" height="14.333"/>
<rect x="584.5" y="6.5" fill="none" stroke="#000000" width="24" height="14.333"/>
<rect x="608.5" y="6.5" fill="none" stroke="#000000" width="24" height="14.333"/>
<line fill="none" stroke="#000000" x1="9.5" y1="28" x2="20.5" y2="0.5"/>
<line fill="none" stroke="#000000" x1="9.5" y1="28" x2="0.5" y2="28"/>
<path fill="none" stroke="#000000" d="M70.552,45.324c0,3.03-2.337,5.485-5.219,5.485c-2.882,0-5.219-2.456-5.219-5.485
	s2.458-5.494,5.341-5.494"/>
<line fill="none" stroke="#000000" x1="69.542" y1="41.986" x2="69.74" y2="38.816"/>
<line fill="none" stroke="#000000" x1="69.576" y1="42.039" x2="66.805" y2="42.133"/>
<line fill="none" stroke="#000000" x1="36.5" y1="45.5" x2="45.5" y2="45.5"/>
<line fill="none" stroke="#000000" x1="45.125" y1="45.5" x2="41.765" y2="41.39"/>
<line fill="none" stroke="#000000" x1="45.125" y1="45.5" x2="41.39" y2="49.611"/>
<line fill="none" stroke="#000000" x1="22.5" y1="45.5" x2="13.5" y2="45.5"/>
<line fill="none" stroke="#000000" x1="13.875" y1="45.5" x2="17.235" y2="41.39"/>
<line fill="none" stroke="#000000" x1="13.875" y1="45.5" x2="17.61" y2="49.611"/>
<path fill="none" stroke="#000000" d="M65.419,39.83c0,0,3.638-0.215,4.196,2.004"/>
</svg>
