<?xml version="1.0" encoding="utf-8"?>
<!-- Generator: Adobe Illustrator 12.0.0, SVG Export Plug-In  -->
<!DOCTYPE svg PUBLIC "-//W3C//DTD SVG 1.1//EN" "http://www.w3.org/Graphics/SVG/1.1/DTD/svg11.dtd" [
	<!ENTITY ns_flows "http://ns.adobe.com/Flows/1.0/">
	<!ENTITY ns_svg "http://www.w3.org/2000/svg">
	<!ENTITY ns_xlink "http://www.w3.org/1999/xlink">
]>
<svg  version="1.1" xmlns="&ns_svg;" xmlns:xlink="&ns_xlink;" xmlns:a="http://ns.adobe.com/AdobeSVGViewerExtensions/3.0/"
	 width="146" height="146" viewBox="-0.75 -0.75 146 146" enable-background="new -0.75 -0.75 146 146" xml:space="preserve">
<defs>
</defs>
<path fill="none" stroke="#636466" stroke-width="0.5" d="M144.25,141.583c0,1.473-1.194,2.667-2.667,2.667H2.917
	c-1.473,0-2.667-1.194-2.667-2.667V2.917c0-1.473,1.194-2.667,2.667-2.667h138.667c1.473,0,2.667,1.194,2.667,2.667V141.583z"/>
<circle fill="none" stroke="#636466" stroke-width="0.5" cx="72.25" cy="35.632" r="9.382"/>
<line fill="none" stroke="#636466" stroke-width="0.5" x1="55.57" y1="49.65" x2="88.93" y2="49.65"/>
<line fill="none" stroke="#636466" stroke-width="0.5" x1="61.825" y1="54.78" x2="82.675" y2="54.78"/>
<line fill="none" stroke="#636466" stroke-width="0.5" x1="51.4" y1="58.95" x2="68.08" y2="58.95"/>
<line fill="none" stroke="#636466" stroke-width="0.5" x1="76.42" y1="58.95" x2="93.1" y2="58.95"/>
<line fill="none" stroke="#636466" stroke-width="0.5" x1="72.25" y1="57.531" x2="72.25" y2="59.587"/>
<path fill="none" stroke="#636466" stroke-width="0.5" d="M30.55,85.36c0,1.535-1.245,2.78-2.78,2.78H16.65
	c-1.535,0-2.78-1.245-2.78-2.78V74.24c0-1.535,1.245-2.78,2.78-2.78h11.12c1.535,0,2.78,1.245,2.78,2.78V85.36z"/>
<path fill="none" stroke="#636466" stroke-width="0.5" d="M97.27,85.36c0,1.535-1.244,2.78-2.779,2.78H83.37
	c-1.535,0-2.78-1.245-2.78-2.78V74.24c0-1.535,1.245-2.78,2.78-2.78h11.12c1.535,0,2.779,1.245,2.779,2.78V85.36z"/>
<path fill="none" stroke="#636466" stroke-width="0.5" d="M130.63,85.36c0,1.535-1.245,2.78-2.78,2.78h-11.12
	c-1.535,0-2.779-1.245-2.779-2.78V74.24c0-1.535,1.244-2.78,2.779-2.78h11.12c1.535,0,2.78,1.245,2.78,2.78V85.36z"/>
<path fill="none" stroke="#636466" stroke-width="0.5" d="M63.91,85.36c0,1.535-1.244,2.78-2.78,2.78H50.01
	c-1.535,0-2.78-1.245-2.78-2.78V74.24c0-1.535,1.245-2.78,2.78-2.78h11.12c1.536,0,2.78,1.245,2.78,2.78V85.36z"/>
<line fill="none" stroke="#636466" stroke-width="0.5" x1="18.04" y1="92.311" x2="26.38" y2="92.311"/>
<line fill="none" stroke="#636466" stroke-width="0.5" x1="51.4" y1="92.311" x2="59.74" y2="92.311"/>
<line fill="none" stroke="#636466" stroke-width="0.5" x1="82.675" y1="92.311" x2="95.185" y2="92.311"/>
<line fill="none" stroke="#636466" stroke-width="0.5" x1="116.035" y1="92.311" x2="128.545" y2="92.311"/>
<line fill="none" stroke="#636466" stroke-width="0.5" x1="0.25" y1="14.25" x2="144.25" y2="14.25"/>
<line fill="none" stroke="#636466" stroke-width="0.5" x1="40.176" y1="6.25" x2="144.25" y2="6.25"/>
<line fill="none" stroke="#636466" stroke-width="0.5" x1="36.917" y1="0.25" x2="40.176" y2="6.25"/>
<rect x="124.694" y="1.583" fill="none" stroke="#636466" stroke-width="0.5" width="5.333" height="3.185"/>
<rect x="130.027" y="1.583" fill="none" stroke="#636466" stroke-width="0.5" width="5.334" height="3.185"/>
<rect x="135.361" y="1.583" fill="none" stroke="#636466" stroke-width="0.5" width="5.333" height="3.185"/>
<line fill="none" stroke="#636466" stroke-width="0.5" x1="2.25" y1="6.361" x2="4.694" y2="0.25"/>
<line fill="none" stroke="#636466" stroke-width="0.5" x1="2.25" y1="6.361" x2="0.25" y2="6.361"/>
<path fill="none" stroke="#636466" stroke-width="0.5" d="M15.817,10.211c0,0.673-0.519,1.219-1.16,1.219
	c-0.64,0-1.16-0.545-1.16-1.219s0.546-1.221,1.187-1.221"/>
<line fill="none" stroke="#636466" stroke-width="0.5" x1="15.593" y1="9.469" x2="15.637" y2="8.765"/>
<line fill="none" stroke="#636466" stroke-width="0.5" x1="15.6" y1="9.481" x2="14.984" y2="9.501"/>
<line fill="none" stroke="#636466" stroke-width="0.5" x1="8.25" y1="10.25" x2="10.25" y2="10.25"/>
<line fill="none" stroke="#636466" stroke-width="0.5" x1="10.167" y1="10.25" x2="9.42" y2="9.336"/>
<line fill="none" stroke="#636466" stroke-width="0.5" x1="10.167" y1="10.25" x2="9.336" y2="11.164"/>
<line fill="none" stroke="#636466" stroke-width="0.5" x1="5.139" y1="10.25" x2="3.139" y2="10.25"/>
<line fill="none" stroke="#636466" stroke-width="0.5" x1="3.222" y1="10.25" x2="3.969" y2="9.336"/>
<line fill="none" stroke="#636466" stroke-width="0.5" x1="3.222" y1="10.25" x2="4.052" y2="11.164"/>
<path fill="none" stroke="#636466" stroke-width="0.5" d="M14.676,8.99c0,0,0.809-0.048,0.933,0.445"/>
</svg>
