<?xml version="1.0" encoding="utf-8"?>
<!-- Generator: Adobe Illustrator 12.0.0, SVG Export Plug-In  -->
<!DOCTYPE svg PUBLIC "-//W3C//DTD SVG 1.1//EN" "http://www.w3.org/Graphics/SVG/1.1/DTD/svg11.dtd" [
	<!ENTITY ns_flows "http://ns.adobe.com/Flows/1.0/">
	<!ENTITY ns_svg "http://www.w3.org/2000/svg">
	<!ENTITY ns_xlink "http://www.w3.org/1999/xlink">
]>
<svg  version="1.1" xmlns="&ns_svg;" xmlns:xlink="&ns_xlink;" xmlns:a="http://ns.adobe.com/AdobeSVGViewerExtensions/3.0/"
	 width="652" height="652" viewBox="-0.5 -0.5 652 652" enable-background="new -0.5 -0.5 652 652" xml:space="preserve">
<defs>
</defs>
<path fill="none" stroke="#636466" stroke-width="3" d="M649.5,637.5c0,6.627-5.373,12-12,12h-624c-6.627,0-12-5.373-12-12v-624
	c0-6.627,5.373-12,12-12h624c6.627,0,12,5.373,12,12V637.5z"/>
<path fill="none" stroke="#636466" stroke-width="3" d="M580.275,196.65c20.271,39.374,31.719,84.066,31.719,131.44
	c0,158.367-127.929,286.749-285.747,286.749c-157.818,0-285.759-128.382-285.759-286.749S168.429,41.34,326.247,41.34
	c101.177,0,190.07,52.766,240.844,132.371"/>
<path fill="none" stroke="#636466" stroke-width="3" d="M419.555,329.085c0,52.259-42.218,94.623-94.301,94.623
	c-52.08,0-94.297-42.364-94.297-94.623c0-52.263,42.217-94.628,94.297-94.628C377.337,234.457,419.555,276.822,419.555,329.085z"/>
<polyline fill="none" stroke="#636466" stroke-width="3" points="484.37,482.056 521.598,419.479 521.543,419.436 573.405,137.741 
	"/>
<polyline fill="none" stroke="#636466" stroke-width="3" points="590.149,141.727 580.192,195.814 537.563,427.377 537.471,427.573 
	496.088,490.221 "/>
<circle fill="none" stroke="#636466" stroke-width="3" cx="590.407" cy="99.321" r="41.694"/>
<path fill="none" stroke="#636466" stroke-width="3" d="M623.998,117.654c1.398,1.591,1.719,3.601,0.716,4.491l-15.463,13.708
	c-1.004,0.89-2.954,0.324-4.353-1.266l-48.542-55.159c-1.398-1.589-1.718-3.6-0.713-4.49l15.461-13.708
	c1.007-0.891,2.954-0.324,4.353,1.265L623.998,117.654z"/>
<path fill="none" stroke="#636466" stroke-width="3" d="M608.832,58.841c-0.942,1.419-2.856,1.805-4.276,0.863l-10.277-6.822
	c-1.42-0.942-1.806-2.857-0.865-4.276l23.879-35.973c0.942-1.419,2.856-1.806,4.274-0.864l10.278,6.821
	c1.42,0.943,1.806,2.857,0.864,4.276L608.832,58.841z"/>
<path fill="none" stroke="#636466" stroke-width="3" d="M613.394,59.402c-0.941,1.418-2.854,1.805-4.273,0.863l-17.987-11.938
	c-1.42-0.942-1.806-2.856-0.864-4.275l1.705-2.57c0.942-1.419,2.855-1.806,4.276-0.864l17.985,11.938
	c1.421,0.942,1.807,2.856,0.864,4.275L613.394,59.402z"/>
<line fill="none" stroke="#636466" stroke-width="3" x1="591.435" y1="57.002" x2="593.148" y2="52.547"/>
<path fill="none" stroke="#636466" stroke-width="3" d="M475.063,540.943c-0.981,1.393-2.904,1.725-9.629,8.305l-25.205-17.77
	c3.938-8.542,3.604-10.466,4.587-11.858l28.43-40.33c0.981-1.393,2.905-1.725,4.297-0.745l25.206,17.77
	c1.395,0.98,1.726,2.906,0.745,4.299L475.063,540.943z"/>
<rect x="499.868" y="515.02" transform="matrix(0.5463 -0.8376 0.8376 0.5463 -214.9425 659.5873)" fill="none" stroke="#636466" stroke-width="3" width="3.085" height="26.384"/>
</svg>
